<svg id="Capa_1" data-name="Capa 1" xmlns="http://www.w3.org/2000/svg" viewBox="0 0 718.25 309.38"><defs><style>.cls-1{fill:#322c2b;}</style></defs><title>logo plain</title><path class="cls-1" d="M325.44,348.17h4.46c17.84-36.23,57.41-59.09,95.32-59.09,42.37,0,68.57,22.86,74.7,63h3.34c23.42-41.25,54.08-63,99.79-63,70.79,0,93.09,54.63,83.06,118.74l-29,184H517.76l23.41-146.61c2.79-17.28,6.13-39.58-15-39.58-20.63,0-24,22.3-26.76,39.58L476,591.78H336.59L360,445.17c2.79-17.28,6.13-39.58-15.05-39.58-20.63,0-24,22.3-26.76,39.58L294.78,591.78H155.42l46.82-296h136Z" transform="translate(-155.42 -289.08)"/><path class="cls-1" d="M872.9,529.34c-7.25,44-53.52,69.12-94.21,69.12s-79.16-25.08-71.91-69.12c6.69-44.59,53.51-70.79,94.2-70.79S879.59,484.75,872.9,529.34Z" transform="translate(-155.42 -289.08)"/></svg>