<!-- Generator: Adobe Illustrator 22.0.1, SVG Export Plug-In  -->
<svg version="1.1"
	 xmlns="http://www.w3.org/2000/svg" xmlns:xlink="http://www.w3.org/1999/xlink" xmlns:a="http://ns.adobe.com/AdobeSVGViewerExtensions/3.0/"
	 x="0px" y="0px" width="667.67px" height="112.178px" viewBox="0 0 667.67 112.178"
	 style="overflow:scroll;enable-background:new 0 0 667.67 112.178;" xml:space="preserve">
<style type="text/css">
	.st0{fill:#322C2B;}
</style>
<defs>
</defs>
<g>
	<path class="st0" d="M6.357,79.671c-2.931,15.587,6.262,25.979,20.517,25.979c9.593,0,18.252-5.729,23.982-13.989l4.529,2.931
		c-7.194,10.659-18.118,16.654-30.242,16.654c-18.252,0-27.444-14.788-24.647-32.242C3.159,61.818,17.415,47.03,35.4,47.03
		c18.652,0,27.312,14.921,24.381,32.641H6.357z M54.718,74.075c0.267-11.325-7.461-21.45-20.118-21.45
		c-12.523,0-24.514,9.859-27.312,21.45H54.718z"/>
	<path class="st0" d="M103.34,59.553c-1.333-4.263-4.929-6.928-9.725-6.928c-5.196,0-11.191,4.263-11.99,9.593
		c-2.399,14.788,28.777,7.594,25.18,29.843c-1.732,11.325-11.857,19.185-22.915,19.185c-10.258,0-17.586-6.262-18.519-16.255
		l6.128-1.865c1.066,7.328,5.196,12.523,13.323,12.523c7.727,0,14.788-6.129,16.121-13.856c1.199-7.593-4.397-9.992-10.126-12.123
		c-7.861-3.064-16.919-6.662-15.321-17.053c1.465-9.326,10.392-15.588,19.318-15.588c6.262,0,12.391,4.13,14.122,9.858
		L103.34,59.553z"/>
	<path class="st0" d="M126.118,109.913h-5.996l8.927-55.956h-6.795l0.8-5.596h6.795l3.464-21.982h5.995l-3.464,21.982h10.791
		l-0.8,5.596h-10.792L126.118,109.913z"/>
	<path class="st0" d="M200.323,48.362l-5.862,36.904c-0.932,6.262-1.866,12.523-6.528,17.72c-5.063,5.595-12.79,8.26-19.717,8.26
		c-6.928,0-13.589-2.665-17.053-8.26c-3.064-5.197-1.866-11.458-0.933-17.72l5.862-36.904h5.995l-5.462,34.773
		c-1.866,11.857-2.265,22.515,12.523,22.515S187,94.991,188.865,83.135l5.463-34.773H200.323z"/>
	<path class="st0" d="M260.001,98.855h-0.267c-5.729,7.861-16.386,12.391-25.446,12.391c-18.652,0-27.978-14.522-25.18-32.508
		c2.798-17.986,16.654-31.708,35.172-31.708c9.459,0,17.853,4.263,21.85,11.99h0.267L275.723,0h5.995l-17.453,109.913h-5.995
		L260.001,98.855z M263.733,78.072c2.264-14.255-5.73-25.447-20.651-25.447c-14.122,0-25.846,12.79-27.978,26.113
		c-2.265,14.122,5.063,26.912,19.985,26.912C250.809,105.65,261.334,92.86,263.733,78.072z"/>
	<path class="st0" d="M287.707,109.913h-5.995l9.725-61.552h5.995L287.707,109.913z M303.295,27.845
		c-0.533,3.064-3.331,5.462-6.395,5.462c-3.064,0-5.062-2.398-4.529-5.462c0.399-2.931,3.197-5.462,6.262-5.462
		C301.696,22.383,303.694,24.914,303.295,27.845z"/>
	<path class="st0" d="M371.237,79.138c-2.932,18.252-19.452,32.108-37.57,32.108c-17.72,0-29.577-14.522-26.912-31.975
		c2.798-17.719,19.318-32.241,37.171-32.241C362.044,47.03,374.036,60.885,371.237,79.138z M312.75,79.271
		c-2.132,13.989,6.928,26.379,21.449,26.379c15.055,0,28.644-11.457,30.909-26.379c2.399-15.188-7.328-26.646-22.515-26.646
		C327.938,52.625,315.015,65.015,312.75,79.271z"/>
	<path class="st0" d="M456.23,79.804h-51.028c-1.599,9.859,2.799,15.188,12.791,15.188c5.197,0,9.193-1.732,12.523-6.262h23.314
		c-3.064,7.994-8.792,13.856-15.72,17.72c-6.796,3.863-14.921,5.729-22.783,5.729c-22.649,0-37.436-12.79-33.707-36.371
		c3.597-22.782,21.317-36.504,43.567-36.504c23.713,0,35.172,14.655,31.439,37.969L456.23,79.804z M435.845,65.815
		c-0.134-6.528-5.462-10.791-11.99-10.791c-7.061,0-13.456,3.73-16.121,10.791H435.845z"/>
	<path class="st0" d="M496.189,50.094h0.266c6.928-7.594,14.524-10.791,23.316-10.791c9.858,0,17.718,3.997,21.184,13.056
		c6.127-8.527,15.987-13.056,25.312-13.056c17.321,0,21.449,11.324,19.052,27.045l-6.927,43.565h-24.248l5.197-32.641
		c1.066-7.061,3.198-18.651-7.061-18.651c-11.19,0-13.322,10.525-14.522,18.651l-5.197,32.641h-24.248l5.197-32.641
		c1.2-7.594,3.064-19.184-7.726-19.184c-10.792,0-12.657,11.59-13.855,19.184l-5.197,32.641h-24.248l10.791-68.346h24.248
		L496.189,50.094z"/>
	<path class="st0" d="M666.578,79.804h-51.028c-1.599,9.859,2.799,15.188,12.791,15.188c5.195,0,9.192-1.732,12.523-6.262h23.314
		c-3.064,7.994-8.792,13.856-15.72,17.72c-6.796,3.863-14.923,5.729-22.783,5.729c-22.649,0-37.436-12.79-33.707-36.371
		c3.597-22.782,21.317-36.504,43.565-36.504c23.715,0,35.172,14.655,31.443,37.969L666.578,79.804z M646.193,65.815
		c-0.134-6.528-5.462-10.791-11.99-10.791c-7.061,0-13.456,3.73-16.121,10.791H646.193z"/>
</g>
</svg>