<!-- Generator: Adobe Illustrator 22.0.1, SVG Export Plug-In  -->
<svg version="1.1"
	 xmlns="http://www.w3.org/2000/svg" xmlns:xlink="http://www.w3.org/1999/xlink" xmlns:a="http://ns.adobe.com/AdobeSVGViewerExtensions/3.0/"
	 x="0px" y="0px" width="718.251px" height="309.382px" viewBox="0 0 718.251 309.382"
	 style="overflow:scroll;enable-background:new 0 0 718.251 309.382;" xml:space="preserve">
<style type="text/css">
	.st0{fill:#EDEDED;}
</style>
<defs>
</defs>
<path class="st0" d="M170.021,59.086h4.46C192.319,22.854,231.898,0,269.805,0c42.366,0,68.566,22.854,74.698,62.99h3.345
	C371.26,21.739,401.92,0,447.63,0c70.796,0,93.094,54.627,83.06,118.735l-28.987,183.958H362.341l23.413-146.607
	c2.787-17.282,6.132-39.58-15.051-39.58c-20.626,0-23.97,22.298-26.757,39.58l-23.413,146.607H181.17l23.413-146.607
	c2.787-17.282,6.132-39.58-15.051-39.58c-20.626,0-23.97,22.298-26.757,39.58l-23.413,146.607H0L46.826,6.689h136.017
	L170.021,59.086z"/>
<path class="st0" d="M717.48,240.258c-7.245,44.037-53.515,69.123-94.209,69.123s-79.158-25.087-71.911-69.123
	c6.689-44.596,53.515-70.794,94.209-70.794C686.263,169.464,724.169,195.663,717.48,240.258z"/>
</svg>